G04 Layer: TopSilkscreenLayer*
G04 EasyEDA v6.5.1, 2022-03-27 00:49:21*
G04 a67cddfb3fce44daa9051d46cbbcc19f,10*
G04 Gerber Generator version 0.2*
G04 Scale: 100 percent, Rotated: No, Reflected: No *
G04 Dimensions in millimeters *
G04 leading zeros omitted , absolute positions ,4 integer and 5 decimal *
%FSLAX45Y45*%
%MOMM*%

%ADD10C,0.2540*%
%ADD16C,0.1500*%
%ADD17C,0.1524*%
%ADD18C,0.3000*%
%ADD19C,0.2032*%

%LPD*%
D19*
X100076Y2326030D02*
G01*
X100076Y2240940D01*
X105663Y2223922D01*
X117094Y2212492D01*
X134112Y2206904D01*
X145542Y2206904D01*
X162560Y2212492D01*
X173989Y2223922D01*
X179578Y2240940D01*
X179578Y2326030D01*
X296671Y2309012D02*
G01*
X285242Y2320442D01*
X268223Y2326030D01*
X245363Y2326030D01*
X228345Y2320442D01*
X217170Y2309012D01*
X217170Y2297836D01*
X222757Y2286406D01*
X228345Y2280564D01*
X239776Y2274976D01*
X273812Y2263546D01*
X285242Y2257958D01*
X290829Y2252370D01*
X296671Y2240940D01*
X296671Y2223922D01*
X285242Y2212492D01*
X268223Y2206904D01*
X245363Y2206904D01*
X228345Y2212492D01*
X217170Y2223922D01*
X334010Y2326030D02*
G01*
X334010Y2206904D01*
X334010Y2326030D02*
G01*
X385318Y2326030D01*
X402336Y2320442D01*
X407923Y2314854D01*
X413512Y2303424D01*
X413512Y2291994D01*
X407923Y2280564D01*
X402336Y2274976D01*
X385318Y2269388D01*
X334010Y2269388D02*
G01*
X385318Y2269388D01*
X402336Y2263546D01*
X407923Y2257958D01*
X413512Y2246528D01*
X413512Y2229510D01*
X407923Y2218080D01*
X402336Y2212492D01*
X385318Y2206904D01*
X334010Y2206904D01*
X538734Y2326030D02*
G01*
X538734Y2206904D01*
X538734Y2326030D02*
G01*
X612394Y2326030D01*
X538734Y2269388D02*
G01*
X584200Y2269388D01*
X649986Y2326030D02*
G01*
X649986Y2206904D01*
X755650Y2286406D02*
G01*
X755650Y2206904D01*
X755650Y2269388D02*
G01*
X744220Y2280564D01*
X733044Y2286406D01*
X716026Y2286406D01*
X704595Y2280564D01*
X693165Y2269388D01*
X687578Y2252370D01*
X687578Y2240940D01*
X693165Y2223922D01*
X704595Y2212492D01*
X716026Y2206904D01*
X733044Y2206904D01*
X744220Y2212492D01*
X755650Y2223922D01*
X855726Y2269388D02*
G01*
X849884Y2280564D01*
X832865Y2286406D01*
X815847Y2286406D01*
X798829Y2280564D01*
X793242Y2269388D01*
X798829Y2257958D01*
X810260Y2252370D01*
X838707Y2246528D01*
X849884Y2240940D01*
X855726Y2229510D01*
X855726Y2223922D01*
X849884Y2212492D01*
X832865Y2206904D01*
X815847Y2206904D01*
X798829Y2212492D01*
X793242Y2223922D01*
X893063Y2326030D02*
G01*
X893063Y2206904D01*
X893063Y2263546D02*
G01*
X910336Y2280564D01*
X921512Y2286406D01*
X938529Y2286406D01*
X949960Y2280564D01*
X955802Y2263546D01*
X955802Y2206904D01*
X100076Y2099462D02*
G01*
X100076Y1980336D01*
X100076Y2099462D02*
G01*
X139700Y2099462D01*
X156718Y2093874D01*
X168147Y2082444D01*
X173989Y2071014D01*
X179578Y2053996D01*
X179578Y2025548D01*
X173989Y2008530D01*
X168147Y1997354D01*
X156718Y1985924D01*
X139700Y1980336D01*
X100076Y1980336D01*
X217170Y2059838D02*
G01*
X217170Y1980336D01*
X217170Y2025548D02*
G01*
X222757Y2042820D01*
X234187Y2053996D01*
X245363Y2059838D01*
X262381Y2059838D01*
X299973Y2099462D02*
G01*
X305562Y2093874D01*
X311404Y2099462D01*
X305562Y2105304D01*
X299973Y2099462D01*
X305562Y2059838D02*
G01*
X305562Y1980336D01*
X348742Y2059838D02*
G01*
X383031Y1980336D01*
X417068Y2059838D02*
G01*
X383031Y1980336D01*
X454660Y2025548D02*
G01*
X522731Y2025548D01*
X522731Y2036978D01*
X517144Y2048408D01*
X511302Y2053996D01*
X500126Y2059838D01*
X482854Y2059838D01*
X471678Y2053996D01*
X460247Y2042820D01*
X454660Y2025548D01*
X454660Y2014372D01*
X460247Y1997354D01*
X471678Y1985924D01*
X482854Y1980336D01*
X500126Y1980336D01*
X511302Y1985924D01*
X522731Y1997354D01*
X647700Y2099462D02*
G01*
X647700Y1980336D01*
X647700Y2099462D02*
G01*
X698754Y2099462D01*
X716026Y2093874D01*
X721613Y2088286D01*
X727202Y2076856D01*
X727202Y2065426D01*
X721613Y2053996D01*
X716026Y2048408D01*
X698754Y2042820D01*
X647700Y2042820D01*
X687578Y2042820D02*
G01*
X727202Y1980336D01*
X764794Y2025548D02*
G01*
X832865Y2025548D01*
X832865Y2036978D01*
X827278Y2048408D01*
X821689Y2053996D01*
X810260Y2059838D01*
X793242Y2059838D01*
X781812Y2053996D01*
X770381Y2042820D01*
X764794Y2025548D01*
X764794Y2014372D01*
X770381Y1997354D01*
X781812Y1985924D01*
X793242Y1980336D01*
X810260Y1980336D01*
X821689Y1985924D01*
X832865Y1997354D01*
X870457Y2059838D02*
G01*
X870457Y1940458D01*
X870457Y2042820D02*
G01*
X881887Y2053996D01*
X893063Y2059838D01*
X910336Y2059838D01*
X921512Y2053996D01*
X932942Y2042820D01*
X938529Y2025548D01*
X938529Y2014372D01*
X932942Y1997354D01*
X921512Y1985924D01*
X910336Y1980336D01*
X893063Y1980336D01*
X881887Y1985924D01*
X870457Y1997354D01*
X976121Y2099462D02*
G01*
X976121Y1980336D01*
X1081786Y2059838D02*
G01*
X1081786Y1980336D01*
X1081786Y2042820D02*
G01*
X1070355Y2053996D01*
X1059179Y2059838D01*
X1042162Y2059838D01*
X1030731Y2053996D01*
X1019302Y2042820D01*
X1013713Y2025548D01*
X1013713Y2014372D01*
X1019302Y1997354D01*
X1030731Y1985924D01*
X1042162Y1980336D01*
X1059179Y1980336D01*
X1070355Y1985924D01*
X1081786Y1997354D01*
X1187450Y2042820D02*
G01*
X1176020Y2053996D01*
X1164844Y2059838D01*
X1147826Y2059838D01*
X1136395Y2053996D01*
X1124965Y2042820D01*
X1119378Y2025548D01*
X1119378Y2014372D01*
X1124965Y1997354D01*
X1136395Y1985924D01*
X1147826Y1980336D01*
X1164844Y1980336D01*
X1176020Y1985924D01*
X1187450Y1997354D01*
X1225042Y2025548D02*
G01*
X1293113Y2025548D01*
X1293113Y2036978D01*
X1287526Y2048408D01*
X1281937Y2053996D01*
X1270507Y2059838D01*
X1253489Y2059838D01*
X1242060Y2053996D01*
X1230629Y2042820D01*
X1225042Y2025548D01*
X1225042Y2014372D01*
X1230629Y1997354D01*
X1242060Y1985924D01*
X1253489Y1980336D01*
X1270507Y1980336D01*
X1281937Y1985924D01*
X1293113Y1997354D01*
X1330705Y2059838D02*
G01*
X1330705Y1980336D01*
X1330705Y2025548D02*
G01*
X1336294Y2042820D01*
X1347723Y2053996D01*
X1359154Y2059838D01*
X1376171Y2059838D01*
X100076Y1833270D02*
G01*
X134112Y1753514D01*
X168147Y1833270D02*
G01*
X134112Y1753514D01*
X205739Y1850288D02*
G01*
X217170Y1855876D01*
X234187Y1872894D01*
X234187Y1753514D01*
X277368Y1781962D02*
G01*
X271526Y1776374D01*
X277368Y1770786D01*
X282955Y1776374D01*
X277368Y1781962D01*
X354584Y1872894D02*
G01*
X337565Y1867306D01*
X326136Y1850288D01*
X320547Y1821840D01*
X320547Y1804822D01*
X326136Y1776374D01*
X337565Y1759356D01*
X354584Y1753514D01*
X366013Y1753514D01*
X383031Y1759356D01*
X394207Y1776374D01*
X400050Y1804822D01*
X400050Y1821840D01*
X394207Y1850288D01*
X383031Y1867306D01*
X366013Y1872894D01*
X354584Y1872894D01*
D17*
X250002Y1415315D02*
G01*
X250002Y1306349D01*
X250002Y1306349D02*
G01*
X312232Y1306349D01*
X346522Y1415315D02*
G01*
X346522Y1306349D01*
X346522Y1415315D02*
G01*
X414086Y1415315D01*
X346522Y1363499D02*
G01*
X388178Y1363499D01*
X346522Y1306349D02*
G01*
X414086Y1306349D01*
X448376Y1415315D02*
G01*
X448376Y1306349D01*
X448376Y1415315D02*
G01*
X484952Y1415315D01*
X500446Y1410235D01*
X510860Y1399821D01*
X515940Y1389407D01*
X521274Y1373659D01*
X521274Y1347751D01*
X515940Y1332257D01*
X510860Y1321843D01*
X500446Y1311429D01*
X484952Y1306349D01*
X448376Y1306349D01*
X555564Y1394487D02*
G01*
X565978Y1399821D01*
X581472Y1415315D01*
X581472Y1306349D01*
X1025001Y1440314D02*
G01*
X1025001Y1331348D01*
X1025001Y1440314D02*
G01*
X1071737Y1440314D01*
X1087231Y1435234D01*
X1092565Y1429900D01*
X1097645Y1419486D01*
X1097645Y1409072D01*
X1092565Y1398658D01*
X1087231Y1393578D01*
X1071737Y1388498D01*
X1025001Y1388498D01*
X1061323Y1388498D02*
G01*
X1097645Y1331348D01*
X1131935Y1419486D02*
G01*
X1142349Y1424820D01*
X1158097Y1440314D01*
X1158097Y1331348D01*
X600072Y765266D02*
G01*
X600072Y687288D01*
X605152Y671794D01*
X615566Y661380D01*
X631060Y656300D01*
X641474Y656300D01*
X657222Y661380D01*
X667636Y671794D01*
X672716Y687288D01*
X672716Y765266D01*
X779650Y749772D02*
G01*
X769490Y760186D01*
X753742Y765266D01*
X732914Y765266D01*
X717420Y760186D01*
X707006Y749772D01*
X707006Y739358D01*
X712340Y728944D01*
X717420Y723864D01*
X727834Y718530D01*
X759076Y708116D01*
X769490Y703036D01*
X774570Y697702D01*
X779650Y687288D01*
X779650Y671794D01*
X769490Y661380D01*
X753742Y656300D01*
X732914Y656300D01*
X717420Y661380D01*
X707006Y671794D01*
X813940Y765266D02*
G01*
X813940Y656300D01*
X813940Y765266D02*
G01*
X860930Y765266D01*
X876424Y760186D01*
X881504Y754852D01*
X886838Y744438D01*
X886838Y734278D01*
X881504Y723864D01*
X876424Y718530D01*
X860930Y713450D01*
X813940Y713450D02*
G01*
X860930Y713450D01*
X876424Y708116D01*
X881504Y703036D01*
X886838Y692622D01*
X886838Y677128D01*
X881504Y666714D01*
X876424Y661380D01*
X860930Y656300D01*
X813940Y656300D01*
X921128Y744438D02*
G01*
X931542Y749772D01*
X947036Y765266D01*
X947036Y656300D01*
G36*
X364032Y1112012D02*
G01*
X399999Y1086002D01*
X436016Y1110996D01*
G37*
D16*
X472998Y1063000D02*
G01*
X472998Y948001D01*
X328000Y948001D01*
X328000Y1068001D01*
X326999Y1130000D02*
G01*
X326999Y1254000D01*
X471998Y1254000D01*
X471998Y1130000D01*
X472998Y948001D02*
G01*
X472998Y944999D01*
X452998Y924999D01*
X351000Y924999D01*
X348000Y928001D01*
X328000Y948001D01*
D17*
X1191709Y1147620D02*
G01*
X1191709Y1276113D01*
X1008291Y1276113D01*
X1008291Y1147620D01*
X1191709Y1052380D02*
G01*
X1191709Y923886D01*
X1008291Y923886D01*
X1008291Y1052380D01*
D10*
X150075Y-1495044D02*
G01*
X1350060Y-1495044D01*
X1230073Y364947D02*
G01*
X270075Y364947D01*
X270075Y-25046D01*
X1230073Y364947D02*
G01*
X1230073Y-25046D01*
X150075Y-1495044D02*
G01*
X150075Y-25059D01*
X150063Y-25046D01*
X1350060Y-25046D02*
G01*
X1350060Y-1495044D01*
X1350060Y-25046D02*
G01*
X150063Y-25046D01*
D18*
G75*
G01
X1119099Y308940D02*
G03X1119099Y308940I-15011J0D01*
M02*
