G04 Layer: TopPasteMaskLayer*
G04 EasyEDA v6.5.1, 2022-03-27 00:49:21*
G04 a67cddfb3fce44daa9051d46cbbcc19f,10*
G04 Gerber Generator version 0.2*
G04 Scale: 100 percent, Rotated: No, Reflected: No *
G04 Dimensions in millimeters *
G04 leading zeros omitted , absolute positions ,4 integer and 5 decimal *
%FSLAX45Y45*%
%MOMM*%

%ADD12R,1.0000X0.8999*%

%LPD*%
G36*
X1077010Y1055522D02*
G01*
X1036015Y1055014D01*
X1030986Y1049985D01*
X1030986Y935024D01*
X1036015Y929995D01*
X1163980Y929995D01*
X1169009Y935024D01*
X1169009Y1049985D01*
X1163980Y1055014D01*
X1122019Y1054506D01*
X1122019Y1010513D01*
X1077010Y1010513D01*
G37*
G36*
X1036015Y1270000D02*
G01*
X1030986Y1265021D01*
X1030986Y1150010D01*
X1036015Y1144981D01*
X1077010Y1145489D01*
X1077010Y1189482D01*
X1122019Y1189482D01*
X1122019Y1144981D01*
X1163980Y1144981D01*
X1169009Y1150010D01*
X1169009Y1265021D01*
X1163980Y1270000D01*
G37*
G36*
X978306Y334924D02*
G01*
X971194Y334264D01*
X964234Y332841D01*
X957529Y330555D01*
X951077Y327507D01*
X945083Y323697D01*
X939546Y319227D01*
X934618Y314096D01*
X930300Y308457D01*
X926693Y302361D01*
X923798Y295808D01*
X921766Y289052D01*
X920496Y282041D01*
X920089Y274929D01*
X920191Y111404D01*
X921003Y104343D01*
X922680Y97434D01*
X923798Y94030D01*
X926693Y87528D01*
X930300Y81432D01*
X934618Y75793D01*
X939546Y70662D01*
X945083Y66192D01*
X951077Y62382D01*
X957529Y59334D01*
X964234Y57048D01*
X971194Y55575D01*
X978306Y54965D01*
X985418Y55168D01*
X992428Y56235D01*
X995883Y57048D01*
X1002639Y59334D01*
X1009040Y62382D01*
X1015034Y66192D01*
X1020571Y70662D01*
X1025499Y75793D01*
X1029817Y81432D01*
X1031748Y84429D01*
X1034999Y90728D01*
X1037437Y97434D01*
X1038402Y100838D01*
X1039672Y107848D01*
X1040079Y114960D01*
X1039977Y278485D01*
X1039672Y282041D01*
X1038402Y289052D01*
X1036319Y295808D01*
X1033424Y302361D01*
X1031748Y305460D01*
X1027734Y311353D01*
X1023112Y316738D01*
X1017879Y321513D01*
X1012088Y325678D01*
X1005890Y329133D01*
X999286Y331774D01*
X995883Y332841D01*
X988923Y334264D01*
X985418Y334721D01*
G37*
G36*
X518312Y334924D02*
G01*
X511200Y334264D01*
X504240Y332841D01*
X497535Y330555D01*
X491083Y327507D01*
X485089Y323697D01*
X479551Y319227D01*
X474624Y314096D01*
X470306Y308457D01*
X466699Y302361D01*
X463804Y295808D01*
X461772Y289052D01*
X460501Y282041D01*
X460095Y274929D01*
X460197Y111404D01*
X461009Y104343D01*
X462686Y97434D01*
X463804Y94030D01*
X466699Y87528D01*
X470306Y81432D01*
X474624Y75793D01*
X479551Y70662D01*
X485089Y66192D01*
X491083Y62382D01*
X497535Y59334D01*
X504240Y57048D01*
X511200Y55575D01*
X518312Y54965D01*
X525424Y55168D01*
X532434Y56235D01*
X535889Y57048D01*
X542645Y59334D01*
X549046Y62382D01*
X555040Y66192D01*
X560578Y70662D01*
X565505Y75793D01*
X569823Y81432D01*
X571754Y84429D01*
X575005Y90728D01*
X577443Y97434D01*
X578408Y100838D01*
X579628Y107848D01*
X580085Y114960D01*
X579983Y278485D01*
X579120Y285546D01*
X578408Y289052D01*
X576326Y295808D01*
X573430Y302361D01*
X571754Y305460D01*
X567740Y311353D01*
X563118Y316738D01*
X557885Y321513D01*
X552094Y325678D01*
X549046Y327507D01*
X542645Y330555D01*
X535889Y332841D01*
X528929Y334264D01*
X525424Y334721D01*
G37*
G36*
X1050086Y602945D02*
G01*
X1050086Y406958D01*
X1150061Y406958D01*
X1150061Y602945D01*
G37*
G36*
X800049Y602945D02*
G01*
X800049Y406958D01*
X900074Y406958D01*
X900074Y602945D01*
G37*
G36*
X600049Y602945D02*
G01*
X600049Y406958D01*
X700074Y406958D01*
X700074Y602945D01*
G37*
G36*
X350062Y602945D02*
G01*
X350062Y406958D01*
X450088Y406958D01*
X450088Y602945D01*
G37*
D12*
G01*
X399999Y1015009D03*
G01*
X399999Y1185011D03*
M02*
