<svg xmlns="http://www.w3.org/2000/svg" xmlns:xlink="http://www.w3.org/1999/xlink" width="20.091mm" height="50.14mm" viewBox="4010 3299.9 79.1 197.4"><title></title><style type="text/css">
*[layerid="1"] {stroke:#000000;fill:#000000;}
*[layerid="2"] {stroke:#000000;fill:#000000;}
*[layerid="3"] {stroke:#000000;fill:#000000;}
*[layerid="4"] {stroke:#000000;fill:#000000;}
*[layerid="5"] {stroke:#000000;fill:#000000;}
*[layerid="6"] {stroke:#000000;fill:#000000;}
*[layerid="7"] {stroke:#000000;fill:#000000;}
*[layerid="8"] {stroke:#000000;fill:#000000;}
*[layerid="9"] {stroke:#000000;fill:#000000;}
*[layerid="10"] {stroke:#000000;fill:#000000;}
*[layerid="11"] {stroke:#000000;fill:#000000;}
*[layerid="12"] {stroke:#000000;fill:#000000;}
*[layerid="13"] {stroke:#000000;fill:#000000;}
*[layerid="14"] {stroke:#000000;fill:#000000;}
*[layerid="15"] {stroke:#000000;fill:#000000;}
*[layerid="19"] {stroke:#000000;fill:#000000;}
*[layerid="21"] {stroke:#000000;fill:#000000;}
*[layerid="22"] {stroke:#000000;fill:#000000;}
*[layerid="23"] {stroke:#000000;fill:#000000;}
*[layerid="24"] {stroke:#000000;fill:#000000;}
*[layerid="25"] {stroke:#000000;fill:#000000;}
*[layerid="26"] {stroke:#000000;fill:#000000;}
*[layerid="27"] {stroke:#000000;fill:#000000;}
*[layerid="28"] {stroke:#000000;fill:#000000;}
*[layerid="29"] {stroke:#000000;fill:#000000;}
*[layerid="30"] {stroke:#000000;fill:#000000;}
*[layerid="31"] {stroke:#000000;fill:#000000;}
*[layerid="32"] {stroke:#000000;fill:#000000;}
*[layerid="33"] {stroke:#000000;fill:#000000;}
*[layerid="34"] {stroke:#000000;fill:#000000;}
*[layerid="35"] {stroke:#000000;fill:#000000;}
*[layerid="36"] {stroke:#000000;fill:#000000;}
*[layerid="37"] {stroke:#000000;fill:#000000;}
*[layerid="38"] {stroke:#000000;fill:#000000;}
*[layerid="39"] {stroke:#000000;fill:#000000;}
*[layerid="40"] {stroke:#000000;fill:#000000;}
*[layerid="41"] {stroke:#000000;fill:#000000;}
*[layerid="42"] {stroke:#000000;fill:#000000;}
*[layerid="43"] {stroke:#000000;fill:#000000;}
*[layerid="44"] {stroke:#000000;fill:#000000;}
*[layerid="45"] {stroke:#000000;fill:#000000;}
*[layerid="46"] {stroke:#000000;fill:#000000;}
*[layerid="47"] {stroke:#000000;fill:#000000;}
*[layerid="48"] {stroke:#000000;fill:#000000;}
*[layerid="49"] {stroke:#000000;fill:#000000;}
*[layerid="50"] {stroke:#000000;fill:#000000;}
*[layerid="51"] {stroke:#000000;fill:#000000;}
*[layerid="52"] {stroke:#000000;fill:#000000;}
*[layerid="99"] {stroke:#000000;fill:#000000;}
*[layerid="100"] {stroke:#000000;fill:#000000;}
*[layerid="101"] {stroke:#000000;fill:#000000;}
*[layerid="Hole"] {stroke:#000000;fill:#000000;}
*[layerid="DRCError"] {stroke:#000000;fill:#000000;}
*[fill="none"] {fill: none;}
*[stroke="none"] {stroke: none;}
path, polyline, polygon, line {stroke-linecap:round;}
g[c_partid="part_pad"][layerid="1"] ellipse:not([c_etype="pad_outer"]) {fill:#000000;}
g[c_partid="part_pad"][layerid="1"] polygon:not([c_etype="pad_outer"]) {fill:#000000;}
g[c_partid="part_pad"][layerid="1"] polyline:not([c_etype="pad_outer"]) {stroke:#000000;}
g[c_partid="part_pad"][layerid="2"] ellipse:not([c_etype="pad_outer"]) {fill:#000000;}
g[c_partid="part_pad"][layerid="2"] polygon:not([c_etype="pad_outer"]) {fill:#000000;}
g[c_partid="part_pad"][layerid="2"] polyline:not([c_etype="pad_outer"]) {stroke:#000000;}
g[c_partid="part_pad"][layerid="11"] ellipse:not([c_etype="pad_outer"]) {fill:#000000;}
g[c_partid="part_pad"][layerid="11"] polygon:not([c_etype="pad_outer"]) {fill:#000000;}
g[c_partid="part_pad"][layerid="11"] polyline:not([c_etype="pad_outer"]) {stroke:#000000;}
g[c_partid="part_pad"][layerid="11"] circle {fill:#FFFFFF;}
g[c_partid="part_pad"][layerid="11"] > polyline:nth-of-type(2) {stroke:#FFFFFF;}
g[c_partid="part_pad"][layerid="11"][c_shape="ELLIPSE"]  polyline:nth-last-of-type(1) {stroke:#FFFFFF;}
g[c_partid="part_pad"][layerid="11"][c_shape="RECT"]  polyline:nth-last-of-type(1) {stroke:#FFFFFF;}
g[c_partid="part_pad"][layerid="11"][c_shape="POLYGON"]  polyline:nth-last-of-type(1) {stroke:#FFFFFF;}
g[c_partid="part_via"] > * + circle, #gCurParts g[c_partid="part_via"] > * + circle {fill:#FFFFFF;}
g[c_partid="part_pad"] > polygon[c_etype="pad_outer"], #gCurParts g[c_partid="part_pad"] > polygon[c_etype="pad_outer"] {stroke-linejoin: miter;stroke-miterlimit: 100;}
g[c_partid="part_hole"] > circle {fill: #FFFFFF;}path, polyline, polygon {stroke-linejoin:round;}
rect, circle, ellipse, polyline, line, polygon, path {shape-rendering:crispEdges;}
</style>
<rect x="4010" y="3299.9" width="79.1" height="197.4" fill="#FFFFFF" stroke="none"/><polyline points="4035.75 3388.04 4035.75 3408.12" stroke-width="3.937"  stroke-linecap="round" fill="none" layerid="1" net="GND" id="gge622" locked="0" /><polyline points="4063.307 3380.889 4062.85 3381.346 4035.748 3381.346" stroke-width="3.937"  stroke-linecap="round" fill="none" layerid="1" net="R1_2" id="gge619" locked="0" /><polyline points="4063.31 3408.12 4063.31 3388.5" stroke-width="3.937"  stroke-linecap="round" fill="none" layerid="1" net="+5V" id="gge616" locked="0" /><g c_partid="part_pad" c_etype="pinpart" c_origin="4035.748,3388.039" layerid="1" number="2" net="GND" plated ="Y"  id="gge51" locked="0" c_rotation="180" c_width="3.937" c_height="3.543" title="GND" c_shape="RECT" pasteexpansion="0" solderexpansion="0.2"><polygon  c_etype="pad_shell" points="4037.7165 3389.8105 4033.7795 3389.8105 4033.7795 3386.2675 4037.7165 3386.2675" layerid="1" stroke-width="0" /><circle c_etype="pad_hole" cx="4035.748" cy="3388.039" r="0" layerid="1" stroke-width="0"/></g><g c_partid="part_pad" c_etype="pinpart" c_origin="4035.748,3381.346" layerid="1" number="1" net="R1_2" plated ="Y"  id="gge66" locked="0" c_rotation="180" c_width="3.937" c_height="3.543" title="R1_2" c_shape="RECT" pasteexpansion="0" solderexpansion="0.2"><polygon  c_etype="pad_shell" points="4037.7165 3383.1176 4033.7795 3383.1176 4033.7795 3379.5746 4037.7165 3379.5746" layerid="1" stroke-width="0" /><circle c_etype="pad_hole" cx="4035.748" cy="3381.3461" r="0" layerid="1" stroke-width="0"/></g><g c_partid="part_pad" c_etype="pinpart" c_origin="4063.307,3380.889" layerid="1" number="2" net="R1_2" plated ="Y"  id="gge129" locked="0" c_rotation="90" c_width="4.4588" c_height="5.4213" title="R1_2" c_shape="RECT" pasteexpansion="-393.7008" solderexpansion="0.2000"><polygon  c_etype="pad_shell" points="4066.0177 3383.1181 4060.5965 3383.1181 4060.5965 3378.6593 4066.0177 3378.6593" layerid="1" stroke-width="0" /><circle c_etype="pad_hole" cx="4063.3071" cy="3380.8887" r="0" layerid="1" stroke-width="0"/></g><g c_partid="part_pad" c_etype="pinpart" c_origin="4063.307,3388.497" layerid="1" number="1" net="+5V" plated ="Y"  id="gge144" locked="0" c_rotation="90" c_width="4.4588" c_height="5.4213" title="+5V" c_shape="RECT" pasteexpansion="-393.7008" solderexpansion="0.2000"><polygon  c_etype="pad_shell" points="4066.0177 3386.2677 4060.5965 3386.2677 4060.5965 3390.7265 4066.0177 3390.7265" layerid="1" stroke-width="0" /><circle c_etype="pad_hole" cx="4063.3071" cy="3388.4971" r="0" layerid="1" stroke-width="0"/></g><g c_partid="part_pad" c_etype="pinpart" c_origin="4063.31,3408.12" layerid="1" number="1" net="+5V" plated ="Y"  id="gge453" locked="0" c_rotation="0" c_width="3.937" c_height="7.7165" title="+5V" c_shape="RECT" pasteexpansion="-393.7008" solderexpansion="0.1969"><polygon  c_etype="pad_shell" points="4061.3415 3404.2617 4065.2785 3404.2617 4065.2785 3411.9783 4061.3415 3411.9783" layerid="1" stroke-width="0" /><circle c_etype="pad_hole" cx="4063.3095" cy="3408.12" r="0" layerid="1" stroke-width="0"/></g><g c_partid="part_pad" c_etype="pinpart" c_origin="4053.467,3408.12" layerid="1" number="2" net="" plated ="Y"  id="gge468" locked="0" c_rotation="0" c_width="3.937" c_height="7.7165" title="" c_shape="RECT" pasteexpansion="-393.7008" solderexpansion="0.1969"><polygon  c_etype="pad_shell" points="4051.4985 3404.2617 4055.4355 3404.2617 4055.4355 3411.9783 4051.4985 3411.9783" layerid="1" stroke-width="0" /><circle c_etype="pad_hole" cx="4053.467" cy="3408.12" r="0" layerid="1" stroke-width="0"/></g><g c_partid="part_pad" c_etype="pinpart" c_origin="4045.593,3408.12" layerid="1" number="3" net="" plated ="Y"  id="gge483" locked="0" c_rotation="0" c_width="3.937" c_height="7.7165" title="" c_shape="RECT" pasteexpansion="-393.7008" solderexpansion="0.1969"><polygon  c_etype="pad_shell" points="4043.6245 3404.2617 4047.5615 3404.2617 4047.5615 3411.9783 4043.6245 3411.9783" layerid="1" stroke-width="0" /><circle c_etype="pad_hole" cx="4045.593" cy="3408.12" r="0" layerid="1" stroke-width="0"/></g><g c_partid="part_pad" c_etype="pinpart" c_origin="4035.751,3408.12" layerid="1" number="4" net="GND" plated ="Y"  id="gge498" locked="0" c_rotation="0" c_width="3.937" c_height="7.7165" title="GND" c_shape="RECT" pasteexpansion="-393.7008" solderexpansion="0.1969"><polygon  c_etype="pad_shell" points="4033.7825 3404.2617 4037.7195 3404.2617 4037.7195 3411.9783 4033.7825 3411.9783" layerid="1" stroke-width="0" /><circle c_etype="pad_hole" cx="4035.7505" cy="3408.12" r="0" layerid="1" stroke-width="0"/></g><g c_partid="part_pad" c_etype="pinpart" c_origin="4058.585,3420.325" layerid="11" number="6" net="" plated ="Y"  id="gge513" locked="0" c_rotation="0" c_width="4.7244" c_height="11.0236" title="" c_shape="OVAL" pasteexpansion="0" solderexpansion="0.1969"><polyline  c_etype="pad_shell" points="4058.585 3417.1754 4058.585 3423.4746" layerid="11" stroke-width="4.7244" /><polyline c_etype="pad_hole" points="4058.5851 3423.4743 4058.5851 3417.1751" layerid="11" stroke-width="2.3622"></polyline></g><g c_partid="part_pad" c_etype="pinpart" c_origin="4040.475,3420.325" layerid="11" number="5" net="" plated ="Y"  id="gge528" locked="0" c_rotation="0" c_width="4.7244" c_height="11.0236" title="" c_shape="OVAL" pasteexpansion="0" solderexpansion="0.1969"><polyline  c_etype="pad_shell" points="4040.475 3417.1754 4040.475 3423.4746" layerid="11" stroke-width="4.7244" /><polyline c_etype="pad_hole" points="4040.4749 3423.4743 4040.4749 3417.1751" layerid="11" stroke-width="2.3622"></polyline></g><polyline points="4038.622 3386.1496 4038.622 3390.6771 4032.9134 3390.6771 4032.9134 3385.9527" stroke-width="0.5906"  stroke-linecap="round" fill="none" layerid="3" net="" id="gge21" locked="0" /><polyline points="4032.874 3383.5118 4032.874 3378.6299 4038.5826 3378.6299 4038.5826 3383.5118" stroke-width="0.5906"  stroke-linecap="round" fill="none" layerid="3" net="" id="gge24" locked="0" /><polyline points="4038.622 3390.6771 4038.622 3390.7953 4037.8346 3391.5827 4033.8189 3391.5827 4033.7008 3391.4645 4032.9134 3390.6771" stroke-width="0.5906"  stroke-linecap="round" fill="none" layerid="3" net="" id="gge27" locked="0" /><polyline points="4066.9177 3382.8181 4066.9177 3377.7593 4059.6965 3377.7593 4059.6965 3382.8181" stroke-width="0.6"  stroke-linecap="round" fill="none" layerid="3" net="" id="gge111" locked="0" /><polyline points="4066.9177 3386.5677 4066.9177 3391.6265 4059.6965 3391.6265 4059.6965 3386.5677" stroke-width="0.6"  stroke-linecap="round" fill="none" layerid="3" net="" id="gge114" locked="0" /><polyline points="4025.9085 3486.86 4073.152 3486.86" stroke-width="1"  stroke-linecap="round" fill="none" layerid="3" net="" id="gge399" locked="0" /><polyline points="4068.4281 3413.632 4030.6329 3413.632 4030.6329 3428.9861" stroke-width="1"  stroke-linecap="round" fill="none" layerid="3" net="" id="gge402" locked="0" /><polyline points="4068.4281 3413.632 4068.4281 3428.9861" stroke-width="1"  stroke-linecap="round" fill="none" layerid="3" net="" id="gge405" locked="0" /><polyline points="4025.9085 3486.86 4025.9085 3428.9866 4025.908 3428.9861" stroke-width="1"  stroke-linecap="round" fill="none" layerid="3" net="" id="gge408" locked="0" /><polyline points="4073.152 3428.9861 4073.152 3486.86" stroke-width="1"  stroke-linecap="round" fill="none" layerid="3" net="" id="gge411" locked="0" /><polyline points="4073.152 3428.9861 4025.908 3428.9861" stroke-width="1"  stroke-linecap="round" fill="none" layerid="3" net="" id="gge414" locked="0" /><g c_partid="part_pcbtext" c_etype="pinpart" c_origin="4023.937,3341.3858" c_rotation="0" c_mirror="0" id="gge547" locked="0" layerid="3" c_shapetype="group" ><path c_fontsize="4.921259842519685" c_fontfamily="" c_text="USB Flash\nDrive Replacer\nv1.0" d="M 4023.94 3336.424 L 4023.94 3339.774 L 4024.16 3340.444 L 4024.61 3340.894 L 4025.28 3341.114 L 4025.73 3341.114 L 4026.4 3340.894 L 4026.85 3340.444 L 4027.07 3339.774 L 4027.07 3336.424 M 4031.68 3337.094 L 4031.23 3336.644 L 4030.56 3336.424 L 4029.66 3336.424 L 4028.99 3336.644 L 4028.55 3337.094 L 4028.55 3337.534 L 4028.77 3337.984 L 4028.99 3338.214 L 4029.44 3338.434 L 4030.78 3338.884 L 4031.23 3339.104 L 4031.45 3339.324 L 4031.68 3339.774 L 4031.68 3340.444 L 4031.23 3340.894 L 4030.56 3341.114 L 4029.66 3341.114 L 4028.99 3340.894 L 4028.55 3340.444 M 4033.15 3336.424 L 4033.15 3341.114 M 4033.15 3336.424 L 4035.17 3336.424 L 4035.84 3336.644 L 4036.06 3336.864 L 4036.28 3337.314 L 4036.28 3337.764 L 4036.06 3338.214 L 4035.84 3338.434 L 4035.17 3338.654 M 4033.15 3338.654 L 4035.17 3338.654 L 4035.84 3338.884 L 4036.06 3339.104 L 4036.28 3339.554 L 4036.28 3340.224 L 4036.06 3340.674 L 4035.84 3340.894 L 4035.17 3341.114 L 4033.15 3341.114 M 4041.21 3336.424 L 4041.21 3341.114 M 4041.21 3336.424 L 4044.11 3336.424 M 4041.21 3338.654 L 4043 3338.654 M 4045.59 3336.424 L 4045.59 3341.114 M 4049.75 3337.984 L 4049.75 3341.114 M 4049.75 3338.654 L 4049.3 3338.214 L 4048.86 3337.984 L 4048.19 3337.984 L 4047.74 3338.214 L 4047.29 3338.654 L 4047.07 3339.324 L 4047.07 3339.774 L 4047.29 3340.444 L 4047.74 3340.894 L 4048.19 3341.114 L 4048.86 3341.114 L 4049.3 3340.894 L 4049.75 3340.444 M 4053.69 3338.654 L 4053.46 3338.214 L 4052.79 3337.984 L 4052.12 3337.984 L 4051.45 3338.214 L 4051.23 3338.654 L 4051.45 3339.104 L 4051.9 3339.324 L 4053.02 3339.554 L 4053.46 3339.774 L 4053.69 3340.224 L 4053.69 3340.444 L 4053.46 3340.894 L 4052.79 3341.114 L 4052.12 3341.114 L 4051.45 3340.894 L 4051.23 3340.444 M 4055.16 3336.424 L 4055.16 3341.114 M 4055.16 3338.884 L 4055.84 3338.214 L 4056.28 3337.984 L 4056.95 3337.984 L 4057.4 3338.214 L 4057.63 3338.884 L 4057.63 3341.114 M 4023.94 3345.344 L 4023.94 3350.034 M 4023.94 3345.344 L 4025.5 3345.344 L 4026.17 3345.564 L 4026.62 3346.014 L 4026.85 3346.464 L 4027.07 3347.134 L 4027.07 3348.254 L 4026.85 3348.924 L 4026.62 3349.364 L 4026.17 3349.814 L 4025.5 3350.034 L 4023.94 3350.034 M 4028.55 3346.904 L 4028.55 3350.034 M 4028.55 3348.254 L 4028.77 3347.574 L 4029.22 3347.134 L 4029.66 3346.904 L 4030.33 3346.904 M 4031.81 3345.344 L 4032.03 3345.564 L 4032.26 3345.344 L 4032.03 3345.114 L 4031.81 3345.344 M 4032.03 3346.904 L 4032.03 3350.034 M 4033.73 3346.904 L 4035.08 3350.034 M 4036.42 3346.904 L 4035.08 3350.034 M 4037.9 3348.254 L 4040.58 3348.254 L 4040.58 3347.804 L 4040.36 3347.354 L 4040.13 3347.134 L 4039.69 3346.904 L 4039.01 3346.904 L 4038.57 3347.134 L 4038.12 3347.574 L 4037.9 3348.254 L 4037.9 3348.694 L 4038.12 3349.364 L 4038.57 3349.814 L 4039.01 3350.034 L 4039.69 3350.034 L 4040.13 3349.814 L 4040.58 3349.364 M 4045.5 3345.344 L 4045.5 3350.034 M 4045.5 3345.344 L 4047.51 3345.344 L 4048.19 3345.564 L 4048.41 3345.784 L 4048.63 3346.234 L 4048.63 3346.684 L 4048.41 3347.134 L 4048.19 3347.354 L 4047.51 3347.574 L 4045.5 3347.574 M 4047.07 3347.574 L 4048.63 3350.034 M 4050.11 3348.254 L 4052.79 3348.254 L 4052.79 3347.804 L 4052.57 3347.354 L 4052.35 3347.134 L 4051.9 3346.904 L 4051.23 3346.904 L 4050.78 3347.134 L 4050.33 3347.574 L 4050.11 3348.254 L 4050.11 3348.694 L 4050.33 3349.364 L 4050.78 3349.814 L 4051.23 3350.034 L 4051.9 3350.034 L 4052.35 3349.814 L 4052.79 3349.364 M 4054.27 3346.904 L 4054.27 3351.604 M 4054.27 3347.574 L 4054.72 3347.134 L 4055.16 3346.904 L 4055.84 3346.904 L 4056.28 3347.134 L 4056.73 3347.574 L 4056.95 3348.254 L 4056.95 3348.694 L 4056.73 3349.364 L 4056.28 3349.814 L 4055.84 3350.034 L 4055.16 3350.034 L 4054.72 3349.814 L 4054.27 3349.364 M 4058.43 3345.344 L 4058.43 3350.034 M 4062.59 3346.904 L 4062.59 3350.034 M 4062.59 3347.574 L 4062.14 3347.134 L 4061.7 3346.904 L 4061.03 3346.904 L 4060.58 3347.134 L 4060.13 3347.574 L 4059.91 3348.254 L 4059.91 3348.694 L 4060.13 3349.364 L 4060.58 3349.814 L 4061.03 3350.034 L 4061.7 3350.034 L 4062.14 3349.814 L 4062.59 3349.364 M 4066.75 3347.574 L 4066.3 3347.134 L 4065.86 3346.904 L 4065.19 3346.904 L 4064.74 3347.134 L 4064.29 3347.574 L 4064.07 3348.254 L 4064.07 3348.694 L 4064.29 3349.364 L 4064.74 3349.814 L 4065.19 3350.034 L 4065.86 3350.034 L 4066.3 3349.814 L 4066.75 3349.364 M 4068.23 3348.254 L 4070.91 3348.254 L 4070.91 3347.804 L 4070.69 3347.354 L 4070.47 3347.134 L 4070.02 3346.904 L 4069.35 3346.904 L 4068.9 3347.134 L 4068.45 3347.574 L 4068.23 3348.254 L 4068.23 3348.694 L 4068.45 3349.364 L 4068.9 3349.814 L 4069.35 3350.034 L 4070.02 3350.034 L 4070.47 3349.814 L 4070.91 3349.364 M 4072.39 3346.904 L 4072.39 3350.034 M 4072.39 3348.254 L 4072.61 3347.574 L 4073.06 3347.134 L 4073.51 3346.904 L 4074.18 3346.904 M 4023.94 3355.824 L 4025.28 3358.964 M 4026.62 3355.824 L 4025.28 3358.964 M 4028.1 3355.154 L 4028.55 3354.934 L 4029.22 3354.264 L 4029.22 3358.964 M 4030.92 3357.844 L 4030.69 3358.064 L 4030.92 3358.284 L 4031.14 3358.064 L 4030.92 3357.844 M 4033.96 3354.264 L 4033.29 3354.484 L 4032.84 3355.154 L 4032.62 3356.274 L 4032.62 3356.944 L 4032.84 3358.064 L 4033.29 3358.734 L 4033.96 3358.964 L 4034.41 3358.964 L 4035.08 3358.734 L 4035.52 3358.064 L 4035.75 3356.944 L 4035.75 3356.274 L 4035.52 3355.154 L 4035.08 3354.484 L 4034.41 3354.264 L 4033.96 3354.264" fill="none"  stroke-width="0.8"  /></g><g c_partid="part_pcbtext" c_etype="" c_origin="4050.791,3425.9" c_rotation="90" c_mirror="0" id="gge9" locked="0" layerid="3" c_shapetype="group" display="none"><path c_fontsize="4.5" c_fontfamily="" c_text="LED-0603_R" d="M 4046.2511 3425.9003 L 4050.5411 3425.9003 M 4050.5411 3425.9003 L 4050.5411 3423.4503 M 4046.2511 3422.1003 L 4050.5411 3422.1003 M 4046.2511 3422.1003 L 4046.2511 3419.4403 M 4048.2911 3422.1003 L 4048.2911 3420.4603 M 4050.5411 3422.1003 L 4050.5411 3419.4403 M 4046.2511 3418.0903 L 4050.5411 3418.0903 M 4046.2511 3418.0903 L 4046.2511 3416.6503 L 4046.4511 3416.0403 L 4046.8611 3415.6303 L 4047.2711 3415.4303 L 4047.8911 3415.2203 L 4048.9111 3415.2203 L 4049.5211 3415.4303 L 4049.9311 3415.6303 L 4050.3411 3416.0403 L 4050.5411 3416.6503 L 4050.5411 3418.0903 M 4048.7011 3413.8703 L 4048.7011 3410.1903 M 4046.2511 3407.6103 L 4046.4511 3408.2303 L 4047.0711 3408.6403 L 4048.0911 3408.8403 L 4048.7011 3408.8403 L 4049.7311 3408.6403 L 4050.3411 3408.2303 L 4050.5411 3407.6103 L 4050.5411 3407.2003 L 4050.3411 3406.5903 L 4049.7311 3406.1803 L 4048.7011 3405.9803 L 4048.0911 3405.9803 L 4047.0711 3406.1803 L 4046.4511 3406.5903 L 4046.2511 3407.2003 L 4046.2511 3407.6103 M 4046.8611 3402.1703 L 4046.4511 3402.3803 L 4046.2511 3402.9903 L 4046.2511 3403.4003 L 4046.4511 3404.0103 L 4047.0711 3404.4203 L 4048.0911 3404.6303 L 4049.1111 3404.6303 L 4049.9311 3404.4203 L 4050.3411 3404.0103 L 4050.5411 3403.4003 L 4050.5411 3403.2003 L 4050.3411 3402.5803 L 4049.9311 3402.1703 L 4049.3211 3401.9703 L 4049.1111 3401.9703 L 4048.5011 3402.1703 L 4048.0911 3402.5803 L 4047.8911 3403.2003 L 4047.8911 3403.4003 L 4048.0911 3404.0103 L 4048.5011 3404.4203 L 4049.1111 3404.6303 M 4046.2511 3399.3903 L 4046.4511 3400.0003 L 4047.0711 3400.4103 L 4048.0911 3400.6203 L 4048.7011 3400.6203 L 4049.7311 3400.4103 L 4050.3411 3400.0003 L 4050.5411 3399.3903 L 4050.5411 3398.9803 L 4050.3411 3398.3703 L 4049.7311 3397.9603 L 4048.7011 3397.7503 L 4048.0911 3397.7503 L 4047.0711 3397.9603 L 4046.4511 3398.3703 L 4046.2511 3398.9803 L 4046.2511 3399.3903 M 4046.2511 3396.0003 L 4046.2511 3393.7503 L 4047.8911 3394.9703 L 4047.8911 3394.3603 L 4048.0911 3393.9503 L 4048.2911 3393.7503 L 4048.9111 3393.5403 L 4049.3211 3393.5403 L 4049.9311 3393.7503 L 4050.3411 3394.1503 L 4050.5411 3394.7703 L 4050.5411 3395.3803 L 4050.3411 3396.0003 L 4050.1411 3396.2003 L 4049.7311 3396.4003 M 4051.9811 3392.1903 L 4051.9811 3388.5103 M 4046.2511 3387.1603 L 4050.5411 3387.1603 M 4046.2511 3387.1603 L 4046.2511 3385.3203 L 4046.4511 3384.7003 L 4046.6611 3384.5003 L 4047.0711 3384.3003 L 4047.4811 3384.3003 L 4047.8911 3384.5003 L 4048.0911 3384.7003 L 4048.2911 3385.3203 L 4048.2911 3387.1603 M 4048.2911 3385.7303 L 4050.5411 3384.3003" fill="none"  stroke-width="0.6" c_note="note_name" /></g><g c_partid="part_pcbtext" c_etype="" c_origin="4029.8425,3376.8189" c_rotation="0" c_mirror="0" id="gge15" locked="0" layerid="3" c_shapetype="group" ><path c_fontsize="4.5" c_fontfamily="" c_text="LED1" d="M 4029.8426 3372.2789 L 4029.8426 3376.5689 M 4029.8426 3376.5689 L 4032.2926 3376.5689 M 4033.6426 3372.2789 L 4033.6426 3376.5689 M 4033.6426 3372.2789 L 4036.3026 3372.2789 M 4033.6426 3374.3189 L 4035.2826 3374.3189 M 4033.6426 3376.5689 L 4036.3026 3376.5689 M 4037.6526 3372.2789 L 4037.6526 3376.5689 M 4037.6526 3372.2789 L 4039.0926 3372.2789 L 4039.7026 3372.4789 L 4040.1126 3372.8889 L 4040.3126 3373.2989 L 4040.5226 3373.9189 L 4040.5226 3374.9389 L 4040.3126 3375.5489 L 4040.1126 3375.9589 L 4039.7026 3376.3689 L 4039.0926 3376.5689 L 4037.6526 3376.5689 M 4041.8726 3373.0989 L 4042.2826 3372.8889 L 4042.8926 3372.2789 L 4042.8926 3376.5689" fill="none"  stroke-width="0.6" c_note="note_pre" /></g><g c_partid="part_pcbtext" c_etype="" c_origin="4051.307,3384.693" c_rotation="90" c_mirror="0" id="gge87" locked="0" layerid="3" c_shapetype="group" display="none"><path c_fontsize="4.5" c_fontfamily="" c_text="1k" d="M 4047.5871 3384.6929 L 4047.3771 3384.2829 L 4046.7671 3383.6729 L 4051.0571 3383.6729 M 4046.7671 3382.3229 L 4051.0571 3382.3229 M 4048.1971 3380.2729 L 4050.2471 3382.3229 M 4049.4271 3381.5029 L 4051.0571 3380.0729" fill="none"  stroke-width="0.6" c_note="note_name" /></g><g c_partid="part_pcbtext" c_etype="" c_origin="4060.3543,3375.8346" c_rotation="0" c_mirror="0" id="gge93" locked="0" layerid="3" c_shapetype="group" ><path c_fontsize="4.5" c_fontfamily="" c_text="R1" d="M 4060.3544 3371.2947 L 4060.3544 3375.5847 M 4060.3544 3371.2947 L 4062.1944 3371.2947 L 4062.8044 3371.4947 L 4063.0144 3371.7047 L 4063.2144 3372.1147 L 4063.2144 3372.5247 L 4063.0144 3372.9347 L 4062.8044 3373.1347 L 4062.1944 3373.3347 L 4060.3544 3373.3347 M 4061.7844 3373.3347 L 4063.2144 3375.5847 M 4064.5644 3372.1147 L 4064.9744 3371.9047 L 4065.5944 3371.2947 L 4065.5944 3375.5847" fill="none"  stroke-width="0.6" c_note="note_pre" /></g><g c_partid="part_pcbtext" c_etype="" c_origin="4049.527,3395.118" c_rotation="0" c_mirror="0" id="gge165" locked="0" layerid="3" c_shapetype="group" display="none"><path c_fontsize="4.5" c_fontfamily="" c_text="U-G-04WS-W-05" d="M 4049.53 3390.58L4049.53 3393.65 L4049.73 3394.26 L4050.14 3394.67 L4050.75 3394.87 L4051.16 3394.87 L4051.78 3394.67 L4052.19 3394.26 L4052.39 3393.65 L4052.39 3390.58 M 4053.74 3393.03L4057.42 3393.03 M 4061.84 3391.6L4061.64 3391.19 L4061.23 3390.78 L4060.82 3390.58 L4060 3390.58 L4059.59 3390.78 L4059.18 3391.19 L4058.98 3391.6 L4058.77 3392.21 L4058.77 3393.24 L4058.98 3393.85 L4059.18 3394.26 L4059.59 3394.67 L4060 3394.87 L4060.82 3394.87 L4061.23 3394.67 L4061.64 3394.26 L4061.84 3393.85 L4061.84 3393.24 M 4060.82 3393.24L4061.84 3393.24 M 4063.19 3393.03L4066.87 3393.03 M 4069.45 3390.58L4068.84 3390.78 L4068.43 3391.4 L4068.22 3392.42 L4068.22 3393.03 L4068.43 3394.05 L4068.84 3394.67 L4069.45 3394.87 L4069.86 3394.87 L4070.47 3394.67 L4070.88 3394.05 L4071.09 3393.03 L4071.09 3392.42 L4070.88 3391.4 L4070.47 3390.78 L4069.86 3390.58 L4069.45 3390.58 M 4074.48 3390.58L4072.44 3393.44 L4075.5 3393.44 M 4074.48 3390.58L4074.48 3394.87 M 4076.85 3390.58L4077.88 3394.87 M 4078.9 3390.58L4077.88 3394.87 M 4078.9 3390.58L4079.92 3394.87 M 4080.95 3390.58L4079.92 3394.87 M 4085.16 3391.19L4084.75 3390.78 L4084.14 3390.58 L4083.32 3390.58 L4082.7 3390.78 L4082.3 3391.19 L4082.3 3391.6 L4082.5 3392.01 L4082.7 3392.21 L4083.11 3392.42 L4084.34 3392.83 L4084.75 3393.03 L4084.95 3393.24 L4085.16 3393.65 L4085.16 3394.26 L4084.75 3394.67 L4084.14 3394.87 L4083.32 3394.87 L4082.7 3394.67 L4082.3 3394.26 M 4086.51 3393.03L4090.19 3393.03 M 4091.54 3390.58L4092.56 3394.87 M 4093.59 3390.58L4092.56 3394.87 M 4093.59 3390.58L4094.61 3394.87 M 4095.63 3390.58L4094.61 3394.87 M 4096.98 3393.03L4100.66 3393.03 M 4103.24 3390.58L4102.63 3390.78 L4102.22 3391.4 L4102.01 3392.42 L4102.01 3393.03 L4102.22 3394.05 L4102.63 3394.67 L4103.24 3394.87 L4103.65 3394.87 L4104.26 3394.67 L4104.67 3394.05 L4104.88 3393.03 L4104.88 3392.42 L4104.67 3391.4 L4104.26 3390.78 L4103.65 3390.58 L4103.24 3390.58 M 4108.68 3390.58L4106.64 3390.58 L4106.43 3392.42 L4106.64 3392.21 L4107.25 3392.01 L4107.86 3392.01 L4108.48 3392.21 L4108.89 3392.62 L4109.09 3393.24 L4109.09 3393.65 L4108.89 3394.26 L4108.48 3394.67 L4107.86 3394.87 L4107.25 3394.87 L4106.64 3394.67 L4106.43 3394.46 L4106.23 3394.05 " fill="none"  stroke-width="0.6" c_note="note_name" /></g><g c_partid="part_pcbtext" c_etype="" c_origin="4043.622,3402.409" c_rotation="0" c_mirror="0" id="gge171" locked="0" layerid="3" c_shapetype="group" ><path c_fontsize="4.5" c_fontfamily="" c_text="USB1" d="M 4043.6249 3397.8714 L 4043.6249 3400.9414 L 4043.8249 3401.5514 L 4044.2349 3401.9614 L 4044.8449 3402.1614 L 4045.2549 3402.1614 L 4045.8749 3401.9614 L 4046.2849 3401.5514 L 4046.4849 3400.9414 L 4046.4849 3397.8714 M 4050.6949 3398.4814 L 4050.2949 3398.0714 L 4049.6749 3397.8714 L 4048.8549 3397.8714 L 4048.2449 3398.0714 L 4047.8349 3398.4814 L 4047.8349 3398.8914 L 4048.0449 3399.3014 L 4048.2449 3399.5014 L 4048.6549 3399.7114 L 4049.8849 3400.1214 L 4050.2949 3400.3214 L 4050.4949 3400.5314 L 4050.6949 3400.9414 L 4050.6949 3401.5514 L 4050.2949 3401.9614 L 4049.6749 3402.1614 L 4048.8549 3402.1614 L 4048.2449 3401.9614 L 4047.8349 3401.5514 M 4052.0449 3397.8714 L 4052.0449 3402.1614 M 4052.0449 3397.8714 L 4053.8949 3397.8714 L 4054.5049 3398.0714 L 4054.7049 3398.2814 L 4054.9149 3398.6914 L 4054.9149 3399.0914 L 4054.7049 3399.5014 L 4054.5049 3399.7114 L 4053.8949 3399.9114 M 4052.0449 3399.9114 L 4053.8949 3399.9114 L 4054.5049 3400.1214 L 4054.7049 3400.3214 L 4054.9149 3400.7314 L 4054.9149 3401.3414 L 4054.7049 3401.7514 L 4054.5049 3401.9614 L 4053.8949 3402.1614 L 4052.0449 3402.1614 M 4056.2649 3398.6914 L 4056.6749 3398.4814 L 4057.2849 3397.8714 L 4057.2849 3402.1614" fill="none"  stroke-width="0.6" c_note="note_pre" /></g><circle cx="4063.468" cy="3415.837" r="0.591" stroke-width="1.1811" fill="none" layerid="3" id="gge417" locked="0"  /><path d="M 4037.1653 3384.2598 L 4034.331 3384.2202 L 4035.7483 3385.2438 Z " stroke-width="0"   net="" type="solid" layerid="3" id="gge30" locked="0" c_teardrop="" c_targetpad="" c_targetwire="" /><polyline points="4020 3422.0945 4020 3315.7953" stroke-width="1"  stroke-linecap="round" fill="none" layerid="10" net="" id="gge610" locked="0" /><polyline points="4073.1496 3428 4025.9055 3428" stroke-width="1"  stroke-linecap="round" fill="none" layerid="10" net="" id="gge604" locked="0" /><polyline points="4079.0551 3315.7953 4079.0551 3422.0945" stroke-width="1"  stroke-linecap="round" fill="none" layerid="10" net="" id="gge598" locked="0" /><polyline points="4025.9055 3309.8898 4073.1496 3309.8898" stroke-width="1"  stroke-linecap="round" fill="none" layerid="10" net="" id="gge592" locked="0" /><polyline points="4025.9085 3486.86 4025.9085 3428.9865 4025.908 3428.986" stroke-width="1"  stroke-linecap="round" fill="none" layerid="10" net="" id="gge369" locked="0" /><polyline points="4073.152 3428.986 4073.152 3486.86" stroke-width="1"  stroke-linecap="round" fill="none" layerid="10" net="" id="gge372" locked="0" /><polyline points="4073.152 3428.986 4025.908 3428.986" stroke-width="1"  stroke-linecap="round" fill="none" layerid="10" net="" id="gge375" locked="0" /><path d="M4073.1496 3309.8898A5.9055 5.9055 0 0 1 4079.0551 3315.7953" locked="0"  fill="none" stroke-width="1" c_helper_type="arc2" net="" layerid="10" id="gge595" /><path d="M4079.0551 3422.0945A5.9055 5.9055 0 0 1 4073.1496 3428" locked="0"  fill="none" stroke-width="1" c_helper_type="arc2" net="" layerid="10" id="gge601" /><path d="M4025.9055 3428A5.9055 5.9055 0 0 1 4020 3422.0945" locked="0"  fill="none" stroke-width="1" c_helper_type="arc2" net="" layerid="10" id="gge607" /><path d="M4020 3315.7953A5.9055 5.9055 0 0 1 4025.9055 3309.8898" locked="0"  fill="none" stroke-width="1" c_helper_type="arc2" net="" layerid="10" id="gge613" /></svg>